<svg width="189" height="61" viewBox="0 0 189 61" fill="none" xmlns="http://www.w3.org/2000/svg">
<rect x="0.332275" width="188.668" height="61" rx="6" fill="url(#paint0_linear_305_640)" fill-opacity="0.95"/>
<path d="M67.4297 33.3086C67.4297 33.0352 67.3874 32.791 67.3027 32.5762C67.2246 32.3548 67.0781 32.1562 66.8633 31.9805C66.6549 31.7982 66.3587 31.6224 65.9746 31.4531C65.597 31.2773 65.1087 31.095 64.5098 30.9062C63.8457 30.6979 63.2272 30.4635 62.6543 30.2031C62.0814 29.9427 61.5768 29.64 61.1406 29.2949C60.7109 28.9499 60.3757 28.5527 60.1348 28.1035C59.8939 27.6478 59.7734 27.1204 59.7734 26.5215C59.7734 25.9355 59.8971 25.4017 60.1445 24.9199C60.3984 24.4381 60.7565 24.0247 61.2188 23.6797C61.681 23.3281 62.2246 23.0579 62.8496 22.8691C63.4811 22.6803 64.1777 22.5859 64.9395 22.5859C65.9941 22.5859 66.9056 22.778 67.6738 23.1621C68.4486 23.5462 69.0475 24.0671 69.4707 24.7246C69.8939 25.3822 70.1055 26.1211 70.1055 26.9414L67.4297 26.9414C67.4297 26.4987 67.3353 26.1081 67.1465 25.7695C66.9642 25.431 66.6842 25.1641 66.3066 24.9687C65.9355 24.7734 65.4668 24.6758 64.9004 24.6758C64.3535 24.6758 63.8978 24.7572 63.5332 24.9199C63.1751 25.0827 62.9049 25.304 62.7227 25.584C62.5469 25.8639 62.459 26.1764 62.459 26.5215C62.459 26.7819 62.5208 27.0163 62.6445 27.2246C62.7682 27.4264 62.9538 27.6185 63.2012 27.8008C63.4486 27.9766 63.7546 28.1426 64.1191 28.2988C64.4902 28.4486 64.9199 28.5983 65.4082 28.748C66.1895 28.9824 66.873 29.2428 67.459 29.5293C68.0514 29.8158 68.543 30.1413 68.9336 30.5059C69.3307 30.8704 69.627 31.2806 69.8223 31.7363C70.0241 32.1921 70.125 32.7096 70.125 33.2891C70.125 33.901 70.0046 34.4479 69.7637 34.9297C69.5228 35.4115 69.1777 35.8216 68.7285 36.1602C68.2793 36.4987 67.7389 36.7559 67.1074 36.9316C66.4824 37.1074 65.7826 37.1953 65.0078 37.1953C64.3177 37.1953 63.6341 37.1042 62.957 36.9219C62.2865 36.7331 61.6777 36.4531 61.1309 36.082C60.584 35.7044 60.1478 35.2292 59.8223 34.6562C59.4967 34.0768 59.334 33.3997 59.334 32.625L62.0293 32.625C62.0293 33.0742 62.1009 33.4583 62.2441 33.7773C62.3939 34.0898 62.6022 34.347 62.8691 34.5488C63.1426 34.7441 63.4616 34.8874 63.8262 34.9785C64.1908 35.0697 64.5846 35.1152 65.0078 35.1152C65.5547 35.1152 66.0039 35.0404 66.3555 34.8906C66.7135 34.7344 66.9805 34.5195 67.1563 34.2461C67.3385 33.9727 67.4297 33.6602 67.4297 33.3086ZM75.0566 22.7812L75.0566 37L72.3711 37L72.3711 22.7812L75.0566 22.7812ZM89.0508 29.6465L89.0508 35.1836C88.8425 35.4505 88.5137 35.7402 88.0645 36.0527C87.6217 36.3652 87.0423 36.6354 86.3262 36.8633C85.61 37.0846 84.7311 37.1953 83.6895 37.1953C82.7845 37.1953 81.9577 37.0456 81.209 36.7461C80.4603 36.4401 79.8158 35.9941 79.2754 35.4082C78.735 34.8223 78.3184 34.1061 78.0254 33.2598C77.7324 32.4134 77.5859 31.4466 77.5859 30.3594L77.5859 29.4219C77.5859 28.3346 77.7227 27.3678 77.9961 26.5215C78.276 25.6751 78.6732 24.959 79.1875 24.373C79.7083 23.7871 80.3301 23.3411 81.0527 23.0352C81.7819 22.7292 82.5957 22.5762 83.4941 22.5762C84.6986 22.5762 85.6882 22.7747 86.4629 23.1719C87.2441 23.569 87.8431 24.1159 88.2598 24.8125C88.6764 25.5026 88.9369 26.2969 89.041 27.1953L86.4238 27.1953C86.3522 26.7005 86.209 26.2676 85.9941 25.8965C85.7793 25.5189 85.4733 25.2259 85.0762 25.0176C84.6855 24.8027 84.1777 24.6953 83.5527 24.6953C83.0254 24.6953 82.5599 24.7995 82.1563 25.0078C81.7526 25.2161 81.4141 25.5189 81.1406 25.916C80.8672 26.3131 80.6589 26.8047 80.5156 27.3906C80.3789 27.9766 80.3105 28.6471 80.3105 29.4023L80.3105 30.3594C80.3105 31.1211 80.3887 31.7982 80.5449 32.3906C80.7012 32.9766 80.9258 33.4713 81.2188 33.875C81.5182 34.2721 81.8861 34.5749 82.3223 34.7832C82.765 34.985 83.2663 35.0859 83.8262 35.0859C84.334 35.0859 84.7539 35.0436 85.0859 34.959C85.4245 34.8678 85.6947 34.7604 85.8965 34.6367C86.0983 34.513 86.2546 34.3926 86.3652 34.2754L86.3652 31.6094L83.543 31.6094L83.543 29.6465L89.0508 29.6465ZM103.016 22.7812L103.016 37L100.32 37L94.2754 27.1367L94.2754 37L91.5898 37L91.5898 22.7812L94.2754 22.7812L100.34 32.6543L100.34 22.7812L103.016 22.7812ZM113.66 22.7812L116.346 22.7812L116.346 32.2246C116.346 33.3118 116.111 34.2266 115.643 34.9687C115.174 35.7044 114.536 36.2611 113.729 36.6387C112.921 37.0098 112.003 37.1953 110.975 37.1953C109.933 37.1953 109.005 37.0098 108.191 36.6387C107.378 36.2611 106.74 35.7044 106.277 34.9687C105.815 34.2266 105.584 33.3118 105.584 32.2246L105.584 22.7812L108.27 22.7812L108.27 32.2246C108.27 32.8887 108.38 33.4323 108.602 33.8555C108.823 34.2721 109.135 34.5814 109.539 34.7832C109.943 34.985 110.421 35.0859 110.975 35.0859C111.535 35.0859 112.013 34.985 112.41 34.7832C112.814 34.5814 113.123 34.2721 113.338 33.8555C113.553 33.4323 113.66 32.8887 113.66 32.2246L113.66 22.7812ZM124.363 31.8144L120.701 31.8144L120.701 29.7051L124.363 29.7051C124.962 29.7051 125.447 29.6074 125.818 29.4121C126.196 29.2103 126.473 28.9368 126.648 28.5918C126.824 28.2402 126.912 27.8398 126.912 27.3906C126.912 26.9544 126.824 26.5475 126.648 26.1699C126.473 25.7923 126.196 25.4863 125.818 25.2519C125.447 25.0176 124.962 24.9004 124.363 24.9004L121.58 24.9004L121.58 37L118.895 37L118.895 22.7812L124.363 22.7812C125.47 22.7812 126.414 22.9798 127.195 23.3769C127.983 23.7676 128.582 24.3112 128.992 25.0078C129.409 25.6979 129.617 26.4857 129.617 27.3711C129.617 28.2891 129.409 29.0801 128.992 29.7441C128.582 30.4082 127.983 30.9193 127.195 31.2773C126.414 31.6354 125.47 31.8144 124.363 31.8144Z" fill="white"/>
<defs>
<linearGradient id="paint0_linear_305_640" x1="189" y1="61" x2="104.946" y2="-50.7365" gradientUnits="userSpaceOnUse">
<stop stop-color="#BB3D06"/>
<stop offset="1" stop-color="#D3A402"/>
</linearGradient>
</defs>
</svg>
