<svg width="189" height="61" viewBox="0 0 189 61" fill="none" xmlns="http://www.w3.org/2000/svg">
<rect x="0.332275" width="188.668" height="61" rx="6" fill="url(#paint0_linear_305_639)" fill-opacity="0.95"/>
<path d="M76.1211 34.8906L76.1211 37L68.9727 37L68.9727 34.8906L76.1211 34.8906ZM69.7832 22.7812L69.7832 37L67.0977 37L67.0977 22.7812L69.7832 22.7812ZM88.7871 29.5293L88.7871 30.2617C88.7871 31.3359 88.6439 32.3027 88.3574 33.1621C88.071 34.015 87.6641 34.7409 87.1367 35.3398C86.6094 35.9388 85.9811 36.3978 85.252 36.7168C84.5228 37.0358 83.7122 37.1953 82.8203 37.1953C81.9414 37.1953 81.1341 37.0358 80.3984 36.7168C79.6693 36.3978 79.0378 35.9388 78.5039 35.3398C77.9701 34.7409 77.5566 34.015 77.2637 33.1621C76.9707 32.3027 76.8242 31.3359 76.8242 30.2617L76.8242 29.5293C76.8242 28.4486 76.9707 27.4818 77.2637 26.6289C77.5566 25.776 77.9668 25.0501 78.4941 24.4512C79.0215 23.8457 79.6497 23.3835 80.3789 23.0644C81.1146 22.7454 81.9219 22.5859 82.8008 22.5859C83.6927 22.5859 84.5033 22.7454 85.2324 23.0644C85.9616 23.3835 86.5898 23.8457 87.1172 24.4512C87.651 25.0501 88.0612 25.776 88.3477 26.6289C88.6406 27.4818 88.7871 28.4486 88.7871 29.5293ZM86.0723 30.2617L86.0723 29.5098C86.0723 28.735 86.0007 28.0547 85.8574 27.4687C85.7142 26.8763 85.5026 26.3783 85.2227 25.9746C84.9427 25.571 84.5977 25.2682 84.1875 25.0664C83.7773 24.8581 83.3151 24.7539 82.8008 24.7539C82.2799 24.7539 81.8177 24.8581 81.4141 25.0664C81.0169 25.2682 80.6784 25.571 80.3984 25.9746C80.1185 26.3783 79.9036 26.8763 79.7539 27.4687C79.6107 28.0547 79.5391 28.735 79.5391 29.5098L79.5391 30.2617C79.5391 31.0299 79.6107 31.7103 79.7539 32.3027C79.9036 32.8952 80.1185 33.3965 80.3984 33.8066C80.6849 34.2103 81.0299 34.5163 81.4336 34.7246C81.8372 34.9329 82.2995 35.0371 82.8203 35.0371C83.3411 35.0371 83.8034 34.9329 84.207 34.7246C84.6107 34.5163 84.9492 34.2103 85.2227 33.8066C85.5026 33.3965 85.7142 32.8952 85.8574 32.3027C86.0007 31.7103 86.0723 31.0299 86.0723 30.2617ZM102.156 29.6465L102.156 35.1836C101.948 35.4505 101.619 35.7402 101.17 36.0527C100.727 36.3652 100.148 36.6354 99.4316 36.8633C98.7155 37.0846 97.8366 37.1953 96.7949 37.1953C95.89 37.1953 95.0632 37.0456 94.3145 36.7461C93.5658 36.4401 92.9212 35.9941 92.3809 35.4082C91.8405 34.8223 91.4238 34.1061 91.1309 33.2598C90.8379 32.4134 90.6914 31.4466 90.6914 30.3594L90.6914 29.4219C90.6914 28.3346 90.8281 27.3678 91.1016 26.5215C91.3815 25.6751 91.7786 24.959 92.293 24.373C92.8138 23.7871 93.4355 23.3411 94.1582 23.0352C94.8874 22.7292 95.7012 22.5762 96.5996 22.5762C97.804 22.5762 98.7936 22.7747 99.5684 23.1719C100.35 23.569 100.949 24.1159 101.365 24.8125C101.782 25.5026 102.042 26.2969 102.146 27.1953L99.5293 27.1953C99.4577 26.7005 99.3145 26.2676 99.0996 25.8965C98.8848 25.5189 98.5788 25.2259 98.1816 25.0176C97.791 24.8027 97.2832 24.6953 96.6582 24.6953C96.1309 24.6953 95.6654 24.7995 95.2617 25.0078C94.8581 25.2161 94.5195 25.5189 94.2461 25.916C93.9727 26.3131 93.7643 26.8047 93.6211 27.3906C93.4844 27.9766 93.416 28.6471 93.416 29.4023L93.416 30.3594C93.416 31.1211 93.4941 31.7982 93.6504 32.3906C93.8066 32.9766 94.0313 33.4713 94.3242 33.875C94.6237 34.2721 94.9915 34.5749 95.4277 34.7832C95.8704 34.985 96.3717 35.0859 96.9316 35.0859C97.4395 35.0859 97.8594 35.0436 98.1914 34.959C98.53 34.8678 98.8001 34.7604 99.002 34.6367C99.2038 34.513 99.36 34.3926 99.4707 34.2754L99.4707 31.6094L96.6484 31.6094L96.6484 29.6465L102.156 29.6465ZM107.557 22.7812L107.557 37L104.871 37L104.871 22.7812L107.557 22.7812ZM121.883 22.7812L121.883 37L119.188 37L113.143 27.1367L113.143 37L110.457 37L110.457 22.7812L113.143 22.7812L119.207 32.6543L119.207 22.7812L121.883 22.7812Z" fill="white"/>
<defs>
<linearGradient id="paint0_linear_305_639" x1="189" y1="61" x2="101.933" y2="-52.555" gradientUnits="userSpaceOnUse">
<stop stop-color="#8F00FF"/>
<stop offset="1" stop-color="#00A3FF"/>
</linearGradient>
</defs>
</svg>
