<svg width="114" height="50" viewBox="0 0 114 50" fill="none" xmlns="http://www.w3.org/2000/svg">
<rect x="1.09863" y="-7.62939e-06" width="112" height="50" rx="6" fill="url(#paint0_linear_403_558)" fill-opacity="0.95"/>
<path d="M20.1675 28.5784L20.1675 30L15.0733 30L15.0733 28.5784L20.1675 28.5784ZM15.6262 20.4172L15.6262 30L13.8162 30L13.8162 20.4172L15.6262 20.4172ZM19.5027 24.3727L19.5027 25.7614L15.0733 25.7614L15.0733 24.3727L19.5027 24.3727ZM20.1477 20.4172L20.1477 21.8454L15.0733 21.8454L15.0733 20.4172L20.1477 20.4172ZM22.6553 22.8787L23.9256 25.1428L25.2156 22.8787L27.1045 22.8787L25.0115 26.367L27.19 30L25.3011 30L23.9387 27.624L22.5697 30L20.6808 30L22.8528 26.367L20.773 22.8787L22.6553 22.8787ZM29.849 24.2477L29.849 32.7379L28.1049 32.7379L28.1049 22.8787L29.7174 22.8787L29.849 24.2477ZM34.4232 26.367L34.4232 26.5052C34.4232 27.0229 34.3618 27.5034 34.2389 27.9465C34.1205 28.3853 33.945 28.7692 33.7124 29.0983C33.4799 29.423 33.1903 29.6775 32.8436 29.8618C32.5014 30.0417 32.1065 30.1316 31.6589 30.1316C31.2202 30.1316 30.8384 30.0483 30.5137 29.8815C30.1891 29.7104 29.9148 29.4691 29.691 29.1576C29.4673 28.846 29.2874 28.484 29.1514 28.0716C29.0197 27.6548 28.921 27.2006 28.8552 26.7092L28.8552 26.2682C28.921 25.7461 29.0197 25.2722 29.1514 24.8466C29.2874 24.4166 29.4673 24.0458 29.691 23.7343C29.9148 23.4184 30.1869 23.1749 30.5072 23.0038C30.8319 22.8326 31.2114 22.7471 31.6458 22.7471C32.0977 22.7471 32.4948 22.8326 32.8371 23.0038C33.1837 23.1749 33.4755 23.4206 33.7124 23.7409C33.9493 24.0612 34.127 24.4429 34.2455 24.8861C34.364 25.3293 34.4232 25.8229 34.4232 26.367ZM32.6791 26.5052L32.6791 26.367C32.6791 26.051 32.6506 25.7593 32.5935 25.4916C32.5365 25.2196 32.4487 24.9826 32.3303 24.7808C32.2118 24.5746 32.0582 24.4144 31.8696 24.3003C31.6809 24.1862 31.4527 24.1292 31.1851 24.1292C30.9174 24.1292 30.6871 24.1731 30.494 24.2608C30.3009 24.3486 30.143 24.4736 30.0201 24.636C29.8973 24.7983 29.8007 24.9914 29.7305 25.2152C29.6647 25.4346 29.6208 25.6781 29.5989 25.9457L29.5989 27.0383C29.6384 27.363 29.7152 27.6548 29.8293 27.9136C29.9433 28.1725 30.1101 28.3787 30.3295 28.5323C30.5532 28.6859 30.8428 28.7627 31.1982 28.7627C31.4659 28.7627 31.694 28.7034 31.8827 28.585C32.0714 28.4665 32.225 28.3041 32.3434 28.0979C32.4619 27.8873 32.5475 27.646 32.6001 27.3739C32.6528 27.1019 32.6791 26.8123 32.6791 26.5052ZM37.5363 19.8907L37.5363 30L35.7922 30L35.7922 19.8907L37.5363 19.8907ZM38.8856 26.5117L38.8856 26.3735C38.8856 25.8514 38.9601 25.3709 39.1093 24.9322C39.2585 24.489 39.4757 24.1051 39.7609 23.7804C40.0461 23.4557 40.3949 23.2034 40.8074 23.0235C41.2198 22.8392 41.6893 22.7471 42.2158 22.7471C42.7511 22.7471 43.225 22.8392 43.6375 23.0235C44.0543 23.2034 44.4053 23.4557 44.6905 23.7804C44.9757 24.1051 45.1929 24.489 45.3421 24.9322C45.4913 25.3709 45.5659 25.8514 45.5659 26.3735L45.5659 26.5117C45.5659 27.0295 45.4913 27.51 45.3421 27.9531C45.1929 28.3919 44.9757 28.7758 44.6905 29.1049C44.4053 29.4296 44.0565 29.6819 43.6441 29.8618C43.2316 30.0417 42.7599 30.1316 42.229 30.1316C41.7025 30.1316 41.2308 30.0417 40.814 29.8618C40.3971 29.6819 40.0461 29.4296 39.7609 29.1049C39.4757 28.7758 39.2585 28.3919 39.1093 27.9531C38.9601 27.51 38.8856 27.0295 38.8856 26.5117ZM40.6231 26.3735L40.6231 26.5117C40.6231 26.8233 40.6538 27.1151 40.7152 27.3871C40.7767 27.6591 40.871 27.8983 40.9982 28.1045C41.1255 28.3107 41.29 28.4731 41.4919 28.5915C41.6981 28.7056 41.9438 28.7627 42.229 28.7627C42.5098 28.7627 42.7511 28.7056 42.953 28.5915C43.1548 28.4731 43.3194 28.3107 43.4466 28.1045C43.5782 27.8983 43.6748 27.6591 43.7362 27.3871C43.7976 27.1151 43.8283 26.8233 43.8283 26.5117L43.8283 26.3735C43.8283 26.0664 43.7976 25.779 43.7362 25.5113C43.6748 25.2393 43.5782 25.0002 43.4466 24.7939C43.3194 24.5833 43.1526 24.4188 42.9464 24.3003C42.7446 24.1775 42.501 24.116 42.2158 24.116C41.935 24.116 41.6937 24.1775 41.4919 24.3003C41.29 24.4188 41.1255 24.5833 40.9982 24.7939C40.871 25.0002 40.7767 25.2393 40.7152 25.5113C40.6538 25.779 40.6231 26.0664 40.6231 26.3735ZM48.5671 24.3332L48.5671 30L46.8296 30L46.8296 22.8787L48.475 22.8787L48.5671 24.3332ZM50.7324 22.8326L50.7061 24.4517C50.6096 24.4342 50.4999 24.421 50.377 24.4122C50.2586 24.4034 50.1467 24.3991 50.0414 24.3991C49.7737 24.3991 49.539 24.4363 49.3371 24.5109C49.1353 24.5811 48.9664 24.6843 48.8304 24.8203C48.6987 24.9563 48.5978 25.123 48.5276 25.3205C48.4574 25.5135 48.4179 25.7329 48.4091 25.9786L48.034 25.9326C48.034 25.4806 48.0801 25.0616 48.1722 24.6755C48.2643 24.2894 48.3982 23.9515 48.5737 23.6619C48.7492 23.3723 48.9686 23.1485 49.2318 22.9906C49.4995 22.8282 49.8066 22.7471 50.1533 22.7471C50.2498 22.7471 50.3529 22.7558 50.4626 22.7734C50.5767 22.7866 50.6666 22.8063 50.7324 22.8326ZM54.7538 30.1316C54.2141 30.1316 53.7293 30.0439 53.2993 29.8684C52.8693 29.6929 52.5029 29.4493 52.2001 29.1378C51.9018 28.8219 51.6714 28.4555 51.5091 28.0387C51.3511 27.6175 51.2721 27.1655 51.2721 26.6829L51.2721 26.4196C51.2721 25.8711 51.3511 25.3731 51.5091 24.9256C51.667 24.4736 51.8908 24.0853 52.1804 23.7606C52.47 23.4359 52.8166 23.1858 53.2203 23.0103C53.624 22.8348 54.0693 22.7471 54.5564 22.7471C55.0609 22.7471 55.5063 22.8326 55.8924 23.0037C56.2785 23.1705 56.601 23.4074 56.8599 23.7146C57.1188 24.0217 57.3141 24.3903 57.4457 24.8203C57.5773 25.2459 57.6431 25.7176 57.6431 26.2353L57.6431 26.9659L52.0619 26.9659L52.0619 25.768L55.9319 25.768L55.9319 25.6364C55.9231 25.36 55.8705 25.1077 55.774 24.8795C55.6774 24.647 55.5282 24.4627 55.3264 24.3267C55.1246 24.1862 54.8635 24.116 54.5432 24.116C54.2843 24.116 54.0584 24.1731 53.8653 24.2872C53.6766 24.3969 53.5187 24.5548 53.3914 24.761C53.2686 24.9629 53.1764 25.2042 53.115 25.485C53.0536 25.7658 53.0228 26.0774 53.0228 26.4196L53.0228 26.6829C53.0228 26.9812 53.0623 27.2577 53.1413 27.5122C53.2247 27.7666 53.3453 27.9882 53.5033 28.1769C53.6656 28.3612 53.8587 28.506 54.0825 28.6113C54.3106 28.7122 54.5695 28.7627 54.8591 28.7627C55.2233 28.7627 55.5524 28.6925 55.8464 28.552C56.1447 28.4072 56.4036 28.1944 56.623 27.9136L57.4983 28.8219C57.3492 29.0413 57.1473 29.2519 56.8928 29.4537C56.6427 29.6556 56.34 29.8201 55.9846 29.9473C55.6292 30.0702 55.2189 30.1316 54.7538 30.1316Z" fill="white"/>
<path d="M92.3934 15.9152C90.498 15.9152 88.6452 16.4772 87.0692 17.5303C85.4932 18.5833 84.2649 20.08 83.5396 21.8311C82.8142 23.5823 82.6244 25.5092 82.9942 27.3681C83.364 29.2271 84.2767 30.9347 85.617 32.275C86.9572 33.6152 88.6648 34.5279 90.5238 34.8977C92.3828 35.2675 94.3097 35.0777 96.0608 34.3524C97.8119 33.627 99.3086 32.3987 100.362 30.8227C101.415 29.2468 101.977 27.3939 101.977 25.4985C101.977 24.24 101.729 22.9938 101.247 21.8311C100.766 20.6684 100.06 19.612 99.1698 18.7221C98.2799 17.8322 97.2235 17.1263 96.0608 16.6447C94.8981 16.1631 93.6519 15.9152 92.3934 15.9152V15.9152ZM93.3517 33.0981L93.3517 32.2069C93.3517 31.9527 93.2508 31.7089 93.071 31.5292C92.8913 31.3495 92.6476 31.2485 92.3934 31.2485C92.1392 31.2485 91.8955 31.3495 91.7158 31.5292C91.536 31.7089 91.4351 31.9527 91.4351 32.2069L91.4351 33.0981C89.7484 32.8842 88.1806 32.1157 86.9784 30.9135C85.7762 29.7113 85.0077 28.1435 84.7938 26.4569L85.6851 26.4569C85.9392 26.4569 86.183 26.3559 86.3627 26.1762C86.5424 25.9964 86.6434 25.7527 86.6434 25.4985C86.6434 25.2444 86.5424 25.0006 86.3627 24.8209C86.183 24.6412 85.9392 24.5402 85.6851 24.5402L84.7938 24.5402C85.0077 22.8535 85.7762 21.2858 86.9784 20.0835C88.1806 18.8813 89.7484 18.1128 91.4351 17.8989L91.4351 18.7902C91.4351 19.0444 91.536 19.2881 91.7158 19.4678C91.8955 19.6476 92.1392 19.7485 92.3934 19.7485C92.6476 19.7485 92.8913 19.6476 93.071 19.4678C93.2508 19.2881 93.3517 19.0444 93.3517 18.7902L93.3517 17.8989C95.0384 18.1128 96.6062 18.8813 97.8084 20.0835C99.0106 21.2858 99.7791 22.8535 99.993 24.5402L99.1017 24.5402C98.8476 24.5402 98.6038 24.6412 98.4241 24.8209C98.2444 25.0006 98.1434 25.2444 98.1434 25.4985C98.1434 25.7527 98.2444 25.9964 98.4241 26.1762C98.6038 26.3559 98.8476 26.4569 99.1017 26.4569L99.993 26.4569C99.7791 28.1435 99.0106 29.7113 97.8084 30.9135C96.6062 32.1157 95.0384 32.8842 93.3517 33.0981ZM95.4026 21.2339L90.6109 23.2656C90.3875 23.3624 90.2093 23.5406 90.1126 23.7639L88.0809 28.5556C88.0054 28.7313 87.9843 28.9256 88.0201 29.1135C88.056 29.3014 88.1472 29.4742 88.2821 29.6098C88.4591 29.7903 88.7002 29.8937 88.953 29.8973C89.0856 29.8974 89.2165 29.8679 89.3363 29.811L94.128 27.7794C94.3514 27.6826 94.5295 27.5044 94.6263 27.281L96.658 22.4894C96.732 22.3138 96.7521 22.12 96.7155 21.933C96.6789 21.746 96.5874 21.5741 96.4526 21.4393C96.3178 21.3046 96.146 21.213 95.9589 21.1764C95.7719 21.1399 95.5782 21.1599 95.4026 21.2339V21.2339ZM93.0163 26.1214L90.8313 27.0798L91.7896 24.8948L93.9746 23.9364L93.0163 26.1214Z" fill="white"/>
<rect x="0.901367" y="-7.62939e-06" width="112" height="50" rx="6" fill="black" fill-opacity="0.15"/>
<defs>
<linearGradient id="paint0_linear_403_558" x1="113.099" y1="50" x2="39.32" y2="-19.6889" gradientUnits="userSpaceOnUse">
<stop stop-color="#8F00FF"/>
<stop offset="1" stop-color="#00A3FF"/>
</linearGradient>
</defs>
</svg>
