<svg width="113" height="50" viewBox="0 0 113 50" fill="none" xmlns="http://www.w3.org/2000/svg">
<rect x="0.295898" y="-7.62939e-06" width="112" height="50" rx="6" fill="url(#paint0_linear_403_566)" fill-opacity="0.95"/>
<path d="M18.621 26.8474L20.4309 26.8474C20.3827 27.488 20.205 28.0562 19.8978 28.552C19.5907 29.0435 19.1629 29.4296 18.6144 29.7104C18.066 29.9912 17.4012 30.1316 16.6202 30.1316C16.0191 30.1316 15.4772 30.0263 14.9945 29.8157C14.5163 29.6007 14.106 29.2958 13.7638 28.9009C13.4259 28.5016 13.167 28.0233 12.9872 27.4661C12.8073 26.9045 12.7173 26.2748 12.7173 25.5772L12.7173 24.8466C12.7173 24.149 12.8094 23.5193 12.9937 22.9577C13.178 22.3961 13.4413 21.9178 13.7835 21.5229C14.1302 21.1236 14.5448 20.8165 15.0274 20.6015C15.5145 20.3865 16.0586 20.279 16.6597 20.279C17.4407 20.279 18.1011 20.4238 18.6408 20.7134C19.1804 20.9986 19.5995 21.3913 19.8978 21.8915C20.1962 22.3917 20.3761 22.9665 20.4375 23.6158L18.6276 23.6158C18.5925 23.2122 18.5047 22.8699 18.3643 22.5891C18.2283 22.3083 18.0221 22.0955 17.7457 21.9507C17.4736 21.8015 17.1116 21.7269 16.6597 21.7269C16.3087 21.7269 15.9993 21.7927 15.7317 21.9244C15.4684 22.056 15.249 22.2534 15.0735 22.5167C14.898 22.7756 14.7664 23.1003 14.6786 23.4908C14.5909 23.8769 14.547 24.3245 14.547 24.8334L14.547 25.5772C14.547 26.0642 14.5865 26.5008 14.6655 26.8869C14.7444 27.273 14.8673 27.5999 15.034 27.8676C15.2008 28.1352 15.4158 28.3392 15.679 28.4796C15.9423 28.6201 16.256 28.6903 16.6202 28.6903C17.0634 28.6903 17.4232 28.6201 17.6996 28.4796C17.9804 28.3392 18.1932 28.133 18.338 27.861C18.4872 27.5889 18.5815 27.2511 18.621 26.8474ZM25.6238 28.4862L25.6238 25.202C25.6238 24.9607 25.5822 24.7523 25.4988 24.5768C25.4154 24.4012 25.2882 24.2652 25.1171 24.1687C24.9459 24.0722 24.7287 24.0239 24.4655 24.0239C24.2329 24.0239 24.0289 24.0634 23.8534 24.1424C23.6823 24.2213 23.5506 24.3332 23.4585 24.478C23.3663 24.6184 23.3203 24.7808 23.3203 24.9651L21.5761 24.9651C21.5761 24.6711 21.6464 24.3925 21.7868 24.1292C21.9272 23.8616 22.1268 23.6246 22.3857 23.4184C22.6489 23.2078 22.9627 23.0432 23.3269 22.9248C23.6954 22.8063 24.1079 22.7471 24.5642 22.7471C25.1039 22.7471 25.5843 22.8392 26.0056 23.0235C26.4312 23.2034 26.7646 23.4754 27.006 23.8396C27.2517 24.2038 27.3745 24.6623 27.3745 25.2152L27.3745 28.3217C27.3745 28.6771 27.3965 28.982 27.4404 29.2365C27.4886 29.4866 27.5588 29.7038 27.651 29.8881L27.651 30L25.8805 30C25.7972 29.8201 25.7335 29.5919 25.6897 29.3155C25.6458 29.0347 25.6238 28.7583 25.6238 28.4862ZM25.8674 25.6627L25.8805 26.696L24.7814 26.696C24.5093 26.696 24.2702 26.7246 24.064 26.7816C23.8578 26.8342 23.6888 26.9132 23.5572 27.0185C23.4256 27.1194 23.3269 27.2423 23.261 27.3871C23.1952 27.5275 23.1623 27.6877 23.1623 27.8676C23.1623 28.0431 23.2018 28.201 23.2808 28.3414C23.3642 28.4818 23.4826 28.5937 23.6362 28.6771C23.7941 28.7561 23.9784 28.7956 24.189 28.7956C24.4962 28.7956 24.7638 28.7341 24.992 28.6113C25.2202 28.484 25.3979 28.3305 25.5251 28.1506C25.6524 27.9707 25.7204 27.7995 25.7291 27.6372L26.2293 28.3875C26.1679 28.5674 26.0758 28.7583 25.9529 28.9601C25.8301 29.1619 25.6721 29.3506 25.479 29.5261C25.286 29.7016 25.0534 29.8464 24.7814 29.9605C24.5094 30.0746 24.1934 30.1316 23.8336 30.1316C23.3729 30.1316 22.9605 30.0395 22.5963 29.8552C22.2321 29.6709 21.9447 29.4186 21.7341 29.0983C21.5235 28.778 21.4182 28.4138 21.4182 28.0058C21.4182 27.6284 21.4884 27.295 21.6288 27.0054C21.7692 26.7158 21.9776 26.4723 22.2541 26.2748C22.5305 26.073 22.8727 25.9216 23.2808 25.8207C23.6932 25.7154 24.1649 25.6627 24.6958 25.6627L25.8674 25.6627ZM30.6785 24.3332L30.6785 30L28.941 30L28.941 22.8787L30.5864 22.8787L30.6785 24.3332ZM32.8439 22.8326L32.8175 24.4517C32.721 24.4342 32.6113 24.421 32.4885 24.4122C32.37 24.4034 32.2581 24.3991 32.1528 24.3991C31.8851 24.3991 31.6504 24.4363 31.4486 24.5109C31.2467 24.5811 31.0778 24.6843 30.9418 24.8203C30.8101 24.9563 30.7092 25.123 30.639 25.3205C30.5688 25.5135 30.5293 25.7329 30.5206 25.9786L30.1454 25.9326C30.1454 25.4806 30.1915 25.0616 30.2836 24.6755C30.3758 24.2894 30.5096 23.9515 30.6851 23.6619C30.8606 23.3723 31.08 23.1485 31.3433 22.9906C31.6109 22.8282 31.918 22.7471 32.2647 22.7471C32.3612 22.7471 32.4643 22.7558 32.574 22.7734C32.6881 22.7866 32.778 22.8063 32.8439 22.8326ZM37.4971 22.8787L37.4971 24.1292L33.4165 24.1292L33.4165 22.8787L37.4971 22.8787ZM34.509 21.128L36.2531 21.128L36.2531 27.9465C36.2531 28.1571 36.2817 28.3195 36.3387 28.4336C36.3957 28.5477 36.4813 28.6244 36.5954 28.6639C36.7095 28.7034 36.8455 28.7232 37.0034 28.7232C37.1175 28.7232 37.2228 28.7166 37.3194 28.7034C37.4159 28.6903 37.4971 28.6771 37.5629 28.6639L37.5695 29.9671C37.4247 30.0154 37.2601 30.0548 37.0758 30.0856C36.8959 30.1163 36.6919 30.1316 36.4637 30.1316C36.0732 30.1316 35.731 30.0658 35.437 29.9342C35.143 29.7982 34.9149 29.581 34.7525 29.2826C34.5902 28.9798 34.509 28.5806 34.509 28.0848L34.509 21.128Z" fill="white"/>
<g clip-path="url(#clip0_403_566)">
<path d="M88.9273 17.2703C88.9942 17.3104 89.0525 17.3633 89.099 17.4259C89.1455 17.4885 89.1792 17.5597 89.1981 17.6353C89.2171 17.711 89.221 17.7896 89.2096 17.8668C89.1981 17.9439 89.1716 18.0181 89.1315 18.085L86.1081 23.1235L97.0735 23.1235L94.0489 18.085C93.968 17.9499 93.9441 17.7881 93.9824 17.6354C94.0207 17.4826 94.1181 17.3513 94.2532 17.2703C94.3883 17.1894 94.55 17.1655 94.7028 17.2038C94.8556 17.2421 94.9869 17.3395 95.0678 17.4746L98.4581 23.1235L100.497 23.1235C100.655 23.1235 100.806 23.1861 100.917 23.2974C101.028 23.4088 101.091 23.5598 101.091 23.7173L101.091 24.9048C101.091 25.0623 101.028 25.2133 100.917 25.3246C100.806 25.436 100.655 25.4985 100.497 25.4985L82.6846 25.4985C82.5271 25.4985 82.3761 25.436 82.2647 25.3246C82.1534 25.2133 82.0908 25.0623 82.0908 24.9048L82.0908 23.7173C82.0908 23.5598 82.1534 23.4088 82.2647 23.2974C82.3761 23.1861 82.5271 23.1235 82.6846 23.1235L84.7235 23.1235L88.1114 17.4746C88.1515 17.4077 88.2044 17.3493 88.267 17.3028C88.3296 17.2564 88.4008 17.2227 88.4764 17.2037C88.5521 17.1847 88.6307 17.1809 88.7079 17.1923C88.785 17.2037 88.8592 17.2303 88.9261 17.2703L88.9273 17.2703ZM85.0216 34.3169L83.2106 26.686L99.971 26.686L98.1601 34.3169C98.1132 34.5112 98.0023 34.684 97.8453 34.8077C97.6883 34.9313 97.4942 34.9985 97.2944 34.9985L85.8873 34.9985C85.6872 34.9988 85.4929 34.9317 85.3356 34.808C85.1784 34.6844 85.0673 34.5114 85.0204 34.3169L85.0216 34.3169Z" fill="white"/>
</g>
<rect x="0.0986328" y="-7.62939e-06" width="112" height="50" rx="6" fill="black" fill-opacity="0.15"/>
<defs>
<linearGradient id="paint0_linear_403_566" x1="112.296" y1="50" x2="38.5173" y2="-19.6889" gradientUnits="userSpaceOnUse">
<stop stop-color="#CA3701"/>
<stop offset="1" stop-color="#E9B601"/>
</linearGradient>
<clipPath id="clip0_403_566">
<rect width="19" height="19" fill="white" transform="translate(82.0908 15.9985)"/>
</clipPath>
</defs>
</svg>
