<svg width="57" height="56" viewBox="0 0 57 56" fill="none" xmlns="http://www.w3.org/2000/svg">
<circle cx="28.0986" cy="28" r="25.5" stroke="#A8A8A8" stroke-width="5"/>
<circle cx="4" cy="4" r="4" transform="matrix(-1 0 0 1 32.0493 19)" stroke="#EDEDED" stroke-width="1.5"/>
<path d="M21.0493 32.9347C21.0493 32.0743 21.5902 31.3068 22.4004 31.0175V31.0175C26.0534 29.7128 30.0453 29.7128 33.6982 31.0175V31.0175C34.5085 31.3068 35.0493 32.0743 35.0493 32.9347V34.2502C35.0493 35.4376 33.9976 36.3498 32.8221 36.1818L31.8677 36.0455C29.335 35.6837 26.7637 35.6837 24.2309 36.0455L23.2765 36.1818C22.101 36.3498 21.0493 35.4376 21.0493 34.2502V32.9347Z" stroke="#EDEDED" stroke-width="1.5"/>
</svg>
