<svg width="113" height="50" viewBox="0 0 113 50" fill="none" xmlns="http://www.w3.org/2000/svg">
<rect x="0.493164" y="-7.62939e-06" width="112" height="50" rx="6" fill="url(#paint0_linear_403_573)" fill-opacity="0.95"/>
<path d="M18.8183 26.8474L20.6282 26.8474C20.5799 27.488 20.4022 28.0562 20.0951 28.552C19.788 29.0435 19.3602 29.4296 18.8117 29.7104C18.2632 29.9912 17.5985 30.1316 16.8175 30.1316C16.2163 30.1316 15.6745 30.0263 15.1918 29.8157C14.7135 29.6007 14.3033 29.2958 13.961 28.9009C13.6232 28.5016 13.3643 28.0233 13.1844 27.4661C13.0045 26.9045 12.9146 26.2748 12.9146 25.5772L12.9146 24.8466C12.9146 24.149 13.0067 23.5193 13.191 22.9577C13.3753 22.3961 13.6385 21.9178 13.9808 21.5229C14.3274 21.1236 14.7421 20.8165 15.2247 20.6015C15.7118 20.3865 16.2558 20.279 16.857 20.279C17.638 20.279 18.2983 20.4238 18.838 20.7134C19.3777 20.9986 19.7967 21.3913 20.0951 21.8915C20.3935 22.3917 20.5734 22.9665 20.6348 23.6158L18.8249 23.6158C18.7898 23.2122 18.702 22.8699 18.5616 22.5891C18.4256 22.3083 18.2193 22.0955 17.9429 21.9507C17.6709 21.8015 17.3089 21.7269 16.857 21.7269C16.5059 21.7269 16.1966 21.7927 15.9289 21.9244C15.6657 22.056 15.4463 22.2534 15.2708 22.5167C15.0953 22.7756 14.9636 23.1003 14.8759 23.4908C14.7881 23.8769 14.7443 24.3245 14.7443 24.8334L14.7443 25.5772C14.7443 26.0642 14.7837 26.5008 14.8627 26.8869C14.9417 27.273 15.0646 27.5999 15.2313 27.8676C15.398 28.1352 15.613 28.3392 15.8763 28.4796C16.1396 28.6201 16.4533 28.6903 16.8175 28.6903C17.2606 28.6903 17.6204 28.6201 17.8968 28.4796C18.1777 28.3392 18.3905 28.133 18.5353 27.861C18.6844 27.5889 18.7788 27.2511 18.8183 26.8474ZM23.636 24.3332L23.636 30L21.8985 30L21.8985 22.8787L23.5439 22.8787L23.636 24.3332ZM25.8014 22.8326L25.775 24.4517C25.6785 24.4342 25.5688 24.421 25.4459 24.4122C25.3275 24.4034 25.2156 24.3991 25.1103 24.3991C24.8426 24.3991 24.6079 24.4363 24.4061 24.5109C24.2042 24.5811 24.0353 24.6843 23.8993 24.8203C23.7676 24.9563 23.6667 25.123 23.5965 25.3205C23.5263 25.5135 23.4868 25.7329 23.478 25.9786L23.1029 25.9326C23.1029 25.4806 23.149 25.0616 23.2411 24.6755C23.3333 24.2894 23.4671 23.9515 23.6426 23.6619C23.8181 23.3723 24.0375 23.1485 24.3007 22.9906C24.5684 22.8282 24.8755 22.7471 25.2222 22.7471C25.3187 22.7471 25.4218 22.7558 25.5315 22.7734C25.6456 22.7866 25.7355 22.8063 25.8014 22.8326ZM29.8227 30.1316C29.283 30.1316 28.7982 30.0439 28.3682 29.8684C27.9382 29.6929 27.5718 29.4493 27.2691 29.1378C26.9707 28.8219 26.7403 28.4555 26.578 28.0387C26.42 27.6175 26.341 27.1655 26.341 26.6829L26.341 26.4196C26.341 25.8711 26.42 25.3731 26.578 24.9256C26.7359 24.4736 26.9597 24.0853 27.2493 23.7606C27.5389 23.4359 27.8855 23.1858 28.2892 23.0103C28.6929 22.8348 29.1382 22.7471 29.6253 22.7471C30.1299 22.7471 30.5752 22.8326 30.9613 23.0038C31.3475 23.1705 31.67 23.4074 31.9288 23.7146C32.1877 24.0217 32.383 24.3903 32.5146 24.8203C32.6462 25.2459 32.712 25.7176 32.712 26.2353L32.712 26.9659L27.1308 26.9659L27.1308 25.768L31.0008 25.768L31.0008 25.6364C30.992 25.36 30.9394 25.1077 30.8429 24.8795C30.7463 24.647 30.5972 24.4627 30.3953 24.3267C30.1935 24.1862 29.9324 24.116 29.6121 24.116C29.3532 24.116 29.1273 24.1731 28.9342 24.2872C28.7455 24.3969 28.5876 24.5548 28.4603 24.761C28.3375 24.9629 28.2453 25.2042 28.1839 25.485C28.1225 25.7658 28.0918 26.0774 28.0918 26.4196L28.0918 26.6829C28.0918 26.9812 28.1312 27.2577 28.2102 27.5122C28.2936 27.7666 28.4143 27.9882 28.5722 28.1769C28.7346 28.3612 28.9276 28.506 29.1514 28.6113C29.3796 28.7122 29.6384 28.7627 29.928 28.7627C30.2922 28.7627 30.6213 28.6925 30.9153 28.552C31.2136 28.4073 31.4725 28.1944 31.6919 27.9136L32.5672 28.8219C32.4181 29.0413 32.2162 29.2519 31.9617 29.4537C31.7116 29.6556 31.4089 29.8201 31.0535 29.9473C30.6981 30.0702 30.2878 30.1316 29.8227 30.1316ZM37.7996 28.4862L37.7996 25.202C37.7996 24.9607 37.7579 24.7523 37.6746 24.5768C37.5912 24.4012 37.464 24.2652 37.2928 24.1687C37.1217 24.0722 36.9045 24.0239 36.6413 24.0239C36.4087 24.0239 36.2047 24.0634 36.0292 24.1424C35.8581 24.2213 35.7264 24.3332 35.6343 24.478C35.5421 24.6184 35.4961 24.7808 35.4961 24.9651L33.7519 24.9651C33.7519 24.6711 33.8221 24.3925 33.9625 24.1292C34.103 23.8616 34.3026 23.6246 34.5615 23.4184C34.8247 23.2078 35.1385 23.0432 35.5026 22.9248C35.8712 22.8063 36.2837 22.7471 36.74 22.7471C37.2797 22.7471 37.7601 22.8392 38.1814 23.0235C38.607 23.2034 38.9404 23.4754 39.1818 23.8396C39.4275 24.2038 39.5503 24.6623 39.5503 25.2152L39.5503 28.3217C39.5503 28.6771 39.5723 28.982 39.6161 29.2365C39.6644 29.4866 39.7346 29.7038 39.8268 29.8881L39.8268 30L38.0563 30C37.9729 29.8201 37.9093 29.5919 37.8654 29.3155C37.8216 29.0347 37.7996 28.7583 37.7996 28.4862ZM38.0431 25.6627L38.0563 26.696L36.9572 26.696C36.6851 26.696 36.446 26.7246 36.2398 26.7816C36.0336 26.8342 35.8646 26.9132 35.733 27.0185C35.6014 27.1194 35.5026 27.2423 35.4368 27.3871C35.371 27.5275 35.3381 27.6877 35.3381 27.8676C35.3381 28.0431 35.3776 28.201 35.4566 28.3414C35.5399 28.4818 35.6584 28.5937 35.812 28.6771C35.9699 28.7561 36.1542 28.7956 36.3648 28.7956C36.672 28.7956 36.9396 28.7341 37.1678 28.6113C37.396 28.484 37.5737 28.3305 37.7009 28.1506C37.8281 27.9707 37.8962 27.7995 37.9049 27.6372L38.4051 28.3875C38.3437 28.5674 38.2516 28.7583 38.1287 28.9601C38.0058 29.1619 37.8479 29.3506 37.6548 29.5261C37.4618 29.7016 37.2292 29.8464 36.9572 29.9605C36.6851 30.0746 36.3692 30.1316 36.0094 30.1316C35.5487 30.1316 35.1363 30.0395 34.7721 29.8552C34.4079 29.6709 34.1205 29.4186 33.9099 29.0983C33.6993 28.778 33.594 28.4138 33.594 28.0058C33.594 27.6284 33.6642 27.295 33.8046 27.0054C33.945 26.7158 34.1534 26.4723 34.4298 26.2748C34.7063 26.073 35.0485 25.9216 35.4566 25.8207C35.869 25.7154 36.3407 25.6627 36.8716 25.6627L38.0431 25.6627ZM44.4865 22.8787L44.4865 24.1292L40.4059 24.1292L40.4059 22.8787L44.4865 22.8787ZM41.4985 21.128L43.2426 21.128L43.2426 27.9465C43.2426 28.1571 43.2711 28.3195 43.3282 28.4336C43.3852 28.5477 43.4708 28.6244 43.5849 28.6639C43.6989 28.7034 43.835 28.7232 43.9929 28.7232C44.107 28.7232 44.2123 28.7166 44.3088 28.7034C44.4054 28.6903 44.4865 28.6771 44.5524 28.6639L44.5589 29.9671C44.4141 30.0154 44.2496 30.0548 44.0653 30.0856C43.8854 30.1163 43.6814 30.1316 43.4532 30.1316C43.0627 30.1316 42.7205 30.0658 42.4265 29.9342C42.1325 29.7982 41.9044 29.581 41.742 29.2826C41.5797 28.9798 41.4985 28.5806 41.4985 28.0848L41.4985 21.128ZM48.8436 30.1316C48.3039 30.1316 47.819 30.0439 47.389 29.8684C46.959 29.6929 46.5927 29.4493 46.2899 29.1378C45.9915 28.8219 45.7612 28.4555 45.5988 28.0387C45.4409 27.6175 45.3619 27.1655 45.3619 26.6829L45.3619 26.4196C45.3619 25.8711 45.4409 25.3731 45.5988 24.9256C45.7568 24.4736 45.9806 24.0853 46.2702 23.7606C46.5597 23.4359 46.9064 23.1858 47.31 23.0103C47.7137 22.8348 48.1591 22.7471 48.6461 22.7471C49.1507 22.7471 49.5961 22.8326 49.9822 23.0037C50.3683 23.1705 50.6908 23.4074 50.9497 23.7146C51.2085 24.0217 51.4038 24.3903 51.5354 24.8203C51.6671 25.2459 51.7329 25.7176 51.7329 26.2353L51.7329 26.9659L46.1517 26.9659L46.1517 25.768L50.0217 25.768L50.0217 25.6364C50.0129 25.36 49.9602 25.1077 49.8637 24.8795C49.7672 24.647 49.618 24.4627 49.4162 24.3267C49.2143 24.1862 48.9533 24.116 48.6329 24.116C48.3741 24.116 48.1481 24.1731 47.955 24.2872C47.7664 24.3969 47.6084 24.5548 47.4812 24.761C47.3583 24.9629 47.2662 25.2042 47.2047 25.485C47.1433 25.7658 47.1126 26.0774 47.1126 26.4196L47.1126 26.6829C47.1126 26.9812 47.1521 27.2577 47.2311 27.5122C47.3144 27.7666 47.4351 27.9882 47.5931 28.1769C47.7554 28.3612 47.9485 28.506 48.1722 28.6113C48.4004 28.7122 48.6593 28.7627 48.9489 28.7627C49.313 28.7627 49.6421 28.6925 49.9361 28.552C50.2345 28.4072 50.4933 28.1944 50.7127 27.9136L51.5881 28.8219C51.4389 29.0413 51.2371 29.2519 50.9826 29.4537C50.7325 29.6556 50.4297 29.8201 50.0743 29.9473C49.7189 30.0702 49.3087 30.1316 48.8436 30.1316Z" fill="white"/>
<line x1="99.7852" y1="25.4971" x2="83.7852" y2="25.4971" stroke="white" stroke-width="3" stroke-linecap="round"/>
<line x1="91.7852" y1="33.4966" x2="91.7852" y2="17.4966" stroke="white" stroke-width="3" stroke-linecap="round"/>
<rect x="0.295898" y="-7.62939e-06" width="112" height="50" rx="6" fill="black" fill-opacity="0.15"/>
<defs>
<linearGradient id="paint0_linear_403_573" x1="112.493" y1="50" x2="38.7146" y2="-19.6889" gradientUnits="userSpaceOnUse">
<stop stop-color="#017181"/>
<stop offset="1" stop-color="#26C511"/>
</linearGradient>
</defs>
</svg>
