<svg width="51" height="51" viewBox="0 0 51 51" fill="none" xmlns="http://www.w3.org/2000/svg">
<g clip-path="url(#clip0_305_85)">
<path d="M47.3503 50.0292C48.8741 50.0292 50.1099 48.7937 50.1099 47.2697V2.78862C50.1099 1.2644 48.8741 0.0290527 47.3503 0.0290527H2.86943C1.34502 0.0290527 0.109863 1.2644 0.109863 2.78862V47.2697C0.109863 48.7937 1.34502 50.0292 2.86943 50.0292H47.3503Z" fill="#395185"/>
<path d="M34.6089 50.0292V30.6666H41.1084L42.0814 23.1207H34.6089V18.3027C34.6089 16.1179 35.2158 14.6291 38.3488 14.6291L42.3447 14.6273V7.87827C41.6533 7.78628 39.2814 7.58081 36.522 7.58081C30.7607 7.58081 26.8166 11.0974 26.8166 17.5556V23.1207H20.3005V30.6666H26.8166V50.0292H34.6089Z" fill="white"/>
</g>
<defs>
<clipPath id="clip0_305_85">
<rect width="50" height="50" fill="white" transform="translate(0.109863 0.0290527)"/>
</clipPath>
</defs>
</svg>
