<svg width="44" height="53" viewBox="0 0 44 53" fill="none" xmlns="http://www.w3.org/2000/svg">
<path d="M42.9573 40.5529C42.2134 42.3189 41.2944 44.0029 40.2145 45.5787C38.772 47.6771 37.5873 49.1272 36.6793 49.9342C35.269 51.2529 33.7539 51.9314 32.1341 51.9697C30.9736 51.9697 29.5713 51.6332 27.938 50.9493C26.2994 50.268 24.795 49.9342 23.4169 49.9342C21.9744 49.9342 20.4271 50.268 18.7696 50.9493C17.1148 51.6332 15.777 51.9916 14.7535 52.0245C13.2035 52.0929 11.6535 51.3979 10.1089 49.9342C9.123 49.0588 7.88998 47.554 6.40981 45.4255C4.82488 43.1575 3.52201 40.5173 2.50121 37.5161C1.40787 34.2686 0.859863 31.1278 0.859863 28.0855C0.859863 24.6027 1.5986 21.596 3.07877 19.079C4.19829 17.1022 5.7988 15.4524 7.72611 14.2885C9.6266 13.1275 11.7961 12.5024 14.0121 12.4773C15.2478 12.4773 16.8677 12.8658 18.8744 13.6319C20.881 14.3979 22.1705 14.7864 22.7319 14.7864C23.1564 14.7864 24.5828 14.3295 27.0112 13.4239C29.3027 12.584 31.2368 12.2366 32.8218 12.3733C37.1199 12.7263 40.3462 14.4499 42.4925 17.5578C38.6511 19.9298 36.7518 23.2485 36.7895 27.5082C36.8217 30.8269 38.0064 33.5874 40.3274 35.7788C41.3534 36.7789 42.5507 37.5791 43.8599 38.1399C43.5751 38.9798 43.2742 39.7814 42.9573 40.5529V40.5529ZM33.1065 1.07142C33.1065 3.67051 32.1717 6.09997 30.3154 8.34613C28.0696 11.0163 25.3565 12.5621 22.4149 12.3186C22.3765 11.9918 22.3576 11.6629 22.3585 11.3337C22.3585 8.83585 23.4223 6.16563 25.3215 3.97966C26.2671 2.87437 27.4706 1.95238 28.9293 1.21916C30.3853 0.496888 31.7607 0.0974497 33.0555 0.0290527C33.0904 0.379245 33.1065 0.726703 33.1065 1.07142V1.07142Z" fill="white"/>
</svg>
