<svg width="172" height="52" viewBox="0 0 172 52" fill="none" xmlns="http://www.w3.org/2000/svg">
<rect width="172" height="52" rx="6" fill="#CCCCCC"/>
<path d="M31.0625 17.5561V34.4428C31.0626 34.4794 31.0735 34.5152 31.0939 34.5457C31.1143 34.5761 31.1432 34.5999 31.177 34.614C31.2108 34.6281 31.2481 34.6319 31.284 34.6249C31.32 34.6179 31.3531 34.6004 31.3792 34.5747L40.1719 25.9999L31.3792 17.4242C31.3531 17.3984 31.32 17.381 31.284 17.374C31.2481 17.367 31.2108 17.3708 31.177 17.3849C31.1432 17.399 31.1143 17.4228 31.0939 17.4532C31.0735 17.4837 31.0626 17.5194 31.0625 17.5561Z" fill="#484848"/>
<path d="M43.8586 22.4767L32.8336 16.4026L32.8268 16.3988C32.6368 16.2956 32.4564 16.5526 32.6119 16.7021L41.2542 24.9659L43.8586 22.4767Z" fill="#484848"/>
<path d="M32.6129 35.2978C32.4565 35.4473 32.637 35.7043 32.8278 35.6012L32.8346 35.5973L43.8587 29.5232L41.2544 27.0332L32.6129 35.2978Z" fill="#484848"/>
<path d="M48.3095 24.926L45.2307 23.2305L42.3359 26.0002L45.2307 28.7687L48.3095 27.0745C49.1469 26.6117 49.1469 25.3888 48.3095 24.926Z" fill="#484848"/>
<path d="M67.41 32V21.5H71.73C72.66 21.5 73.455 21.65 74.115 21.95C74.785 22.25 75.3 22.68 75.66 23.24C76.02 23.8 76.2 24.465 76.2 25.235C76.2 26.005 76.02 26.67 75.66 27.23C75.3 27.79 74.785 28.22 74.115 28.52C73.455 28.82 72.66 28.97 71.73 28.97H68.49L69.36 28.055V32H67.41ZM69.36 28.265L68.49 27.32H71.64C72.5 27.32 73.145 27.14 73.575 26.78C74.015 26.41 74.235 25.895 74.235 25.235C74.235 24.565 74.015 24.05 73.575 23.69C73.145 23.33 72.5 23.15 71.64 23.15H68.49L69.36 22.19V28.265ZM78.1138 32V20.87H79.9888V32H78.1138ZM87.3847 32V30.38L87.2797 30.035V27.2C87.2797 26.65 87.1147 26.225 86.7847 25.925C86.4547 25.615 85.9547 25.46 85.2847 25.46C84.8347 25.46 84.3897 25.53 83.9497 25.67C83.5197 25.81 83.1547 26.005 82.8547 26.255L82.1197 24.89C82.5497 24.56 83.0597 24.315 83.6497 24.155C84.2497 23.985 84.8697 23.9 85.5097 23.9C86.6697 23.9 87.5647 24.18 88.1947 24.74C88.8347 25.29 89.1547 26.145 89.1547 27.305V32H87.3847ZM84.8647 32.105C84.2647 32.105 83.7397 32.005 83.2897 31.805C82.8397 31.595 82.4897 31.31 82.2397 30.95C81.9997 30.58 81.8797 30.165 81.8797 29.705C81.8797 29.255 81.9847 28.85 82.1947 28.49C82.4147 28.13 82.7697 27.845 83.2597 27.635C83.7497 27.425 84.3997 27.32 85.2097 27.32H87.5347V28.565H85.3447C84.7047 28.565 84.2747 28.67 84.0547 28.88C83.8347 29.08 83.7247 29.33 83.7247 29.63C83.7247 29.97 83.8597 30.24 84.1297 30.44C84.3997 30.64 84.7747 30.74 85.2547 30.74C85.7147 30.74 86.1247 30.635 86.4847 30.425C86.8547 30.215 87.1197 29.905 87.2797 29.495L87.5947 30.62C87.4147 31.09 87.0897 31.455 86.6197 31.715C86.1597 31.975 85.5747 32.105 84.8647 32.105ZM92.0746 35.015C91.6846 35.015 91.2946 34.95 90.9046 34.82C90.5146 34.69 90.1896 34.51 89.9296 34.28L90.6796 32.9C90.8696 33.07 91.0846 33.205 91.3246 33.305C91.5646 33.405 91.8096 33.455 92.0596 33.455C92.3996 33.455 92.6746 33.37 92.8846 33.2C93.0946 33.03 93.2896 32.745 93.4696 32.345L93.9346 31.295L94.0846 31.07L97.1146 23.99H98.9146L95.1646 32.645C94.9146 33.245 94.6346 33.72 94.3246 34.07C94.0246 34.42 93.6846 34.665 93.3046 34.805C92.9346 34.945 92.5246 35.015 92.0746 35.015ZM93.7246 32.285L90.1096 23.99H92.0596L94.9996 30.905L93.7246 32.285ZM103.448 32.15C102.628 32.15 101.843 32.035 101.093 31.805C100.343 31.565 99.7482 31.26 99.3082 30.89L99.9832 29.375C100.403 29.705 100.923 29.98 101.543 30.2C102.163 30.42 102.798 30.53 103.448 30.53C103.998 30.53 104.443 30.47 104.783 30.35C105.123 30.23 105.373 30.07 105.533 29.87C105.693 29.66 105.773 29.425 105.773 29.165C105.773 28.845 105.658 28.59 105.428 28.4C105.198 28.2 104.898 28.045 104.528 27.935C104.168 27.815 103.763 27.705 103.313 27.605C102.873 27.505 102.428 27.39 101.978 27.26C101.538 27.12 101.133 26.945 100.763 26.735C100.403 26.515 100.108 26.225 99.8782 25.865C99.6482 25.505 99.5332 25.045 99.5332 24.485C99.5332 23.915 99.6832 23.395 99.9832 22.925C100.293 22.445 100.758 22.065 101.378 21.785C102.008 21.495 102.803 21.35 103.763 21.35C104.393 21.35 105.018 21.43 105.638 21.59C106.258 21.75 106.798 21.98 107.258 22.28L106.643 23.795C106.173 23.515 105.688 23.31 105.188 23.18C104.688 23.04 104.208 22.97 103.748 22.97C103.208 22.97 102.768 23.035 102.428 23.165C102.098 23.295 101.853 23.465 101.693 23.675C101.543 23.885 101.468 24.125 101.468 24.395C101.468 24.715 101.578 24.975 101.798 25.175C102.028 25.365 102.323 25.515 102.683 25.625C103.053 25.735 103.463 25.845 103.913 25.955C104.363 26.055 104.808 26.17 105.248 26.3C105.698 26.43 106.103 26.6 106.463 26.81C106.833 27.02 107.128 27.305 107.348 27.665C107.578 28.025 107.693 28.48 107.693 29.03C107.693 29.59 107.538 30.11 107.228 30.59C106.928 31.06 106.463 31.44 105.833 31.73C105.203 32.01 104.408 32.15 103.448 32.15ZM112.462 32.105C111.582 32.105 110.902 31.88 110.422 31.43C109.942 30.97 109.702 30.295 109.702 29.405V22.22H111.577V29.36C111.577 29.74 111.672 30.035 111.862 30.245C112.062 30.455 112.337 30.56 112.687 30.56C113.107 30.56 113.457 30.45 113.737 30.23L114.262 31.565C114.042 31.745 113.772 31.88 113.452 31.97C113.132 32.06 112.802 32.105 112.462 32.105ZM108.382 25.55V24.05H113.722V25.55H108.382ZM119.141 32.105C118.321 32.105 117.591 31.93 116.951 31.58C116.311 31.22 115.806 30.73 115.436 30.11C115.066 29.49 114.881 28.785 114.881 27.995C114.881 27.195 115.066 26.49 115.436 25.88C115.806 25.26 116.311 24.775 116.951 24.425C117.591 24.075 118.321 23.9 119.141 23.9C119.971 23.9 120.706 24.075 121.346 24.425C121.996 24.775 122.501 25.255 122.861 25.865C123.231 26.475 123.416 27.185 123.416 27.995C123.416 28.785 123.231 29.49 122.861 30.11C122.501 30.73 121.996 31.22 121.346 31.58C120.706 31.93 119.971 32.105 119.141 32.105ZM119.141 30.5C119.601 30.5 120.011 30.4 120.371 30.2C120.731 30 121.011 29.71 121.211 29.33C121.421 28.95 121.526 28.505 121.526 27.995C121.526 27.475 121.421 27.03 121.211 26.66C121.011 26.28 120.731 25.99 120.371 25.79C120.011 25.59 119.606 25.49 119.156 25.49C118.696 25.49 118.286 25.59 117.926 25.79C117.576 25.99 117.296 26.28 117.086 26.66C116.876 27.03 116.771 27.475 116.771 27.995C116.771 28.505 116.876 28.95 117.086 29.33C117.296 29.71 117.576 30 117.926 30.2C118.286 30.4 118.691 30.5 119.141 30.5ZM125.209 32V23.99H126.994V26.195L126.784 25.55C127.024 25.01 127.399 24.6 127.909 24.32C128.429 24.04 129.074 23.9 129.844 23.9V25.685C129.764 25.665 129.689 25.655 129.619 25.655C129.549 25.645 129.479 25.64 129.409 25.64C128.699 25.64 128.134 25.85 127.714 26.27C127.294 26.68 127.084 27.295 127.084 28.115V32H125.209ZM135.126 32.105C134.236 32.105 133.456 31.93 132.786 31.58C132.126 31.22 131.611 30.73 131.241 30.11C130.881 29.49 130.701 28.785 130.701 27.995C130.701 27.195 130.876 26.49 131.226 25.88C131.586 25.26 132.076 24.775 132.696 24.425C133.326 24.075 134.041 23.9 134.841 23.9C135.621 23.9 136.316 24.07 136.926 24.41C137.536 24.75 138.016 25.23 138.366 25.85C138.716 26.47 138.891 27.2 138.891 28.04C138.891 28.12 138.886 28.21 138.876 28.31C138.876 28.41 138.871 28.505 138.861 28.595H132.186V27.35H137.871L137.136 27.74C137.146 27.28 137.051 26.875 136.851 26.525C136.651 26.175 136.376 25.9 136.026 25.7C135.686 25.5 135.291 25.4 134.841 25.4C134.381 25.4 133.976 25.5 133.626 25.7C133.286 25.9 133.016 26.18 132.816 26.54C132.626 26.89 132.531 27.305 132.531 27.785V28.085C132.531 28.565 132.641 28.99 132.861 29.36C133.081 29.73 133.391 30.015 133.791 30.215C134.191 30.415 134.651 30.515 135.171 30.515C135.621 30.515 136.026 30.445 136.386 30.305C136.746 30.165 137.066 29.945 137.346 29.645L138.351 30.8C137.991 31.22 137.536 31.545 136.986 31.775C136.446 31.995 135.826 32.105 135.126 32.105Z" fill="#484848"/>
</svg>
