<svg width="172" height="52" viewBox="0 0 172 52" fill="none" xmlns="http://www.w3.org/2000/svg">
<rect width="172" height="52" rx="6" fill="#CCCCCC"/>
<path d="M59.925 32L64.65 21.5H66.57L71.31 32H69.27L65.205 22.535H65.985L61.935 32H59.925ZM62.1 29.57L62.625 28.04H68.295L68.82 29.57H62.1ZM76.9054 32.105C76.2554 32.105 75.6604 31.955 75.1204 31.655C74.5904 31.355 74.1654 30.905 73.8454 30.305C73.5354 29.695 73.3804 28.925 73.3804 27.995C73.3804 27.055 73.5304 26.285 73.8304 25.685C74.1404 25.085 74.5604 24.64 75.0904 24.35C75.6204 24.05 76.2254 23.9 76.9054 23.9C77.6954 23.9 78.3904 24.07 78.9904 24.41C79.6004 24.75 80.0804 25.225 80.4304 25.835C80.7904 26.445 80.9704 27.165 80.9704 27.995C80.9704 28.825 80.7904 29.55 80.4304 30.17C80.0804 30.78 79.6004 31.255 78.9904 31.595C78.3904 31.935 77.6954 32.105 76.9054 32.105ZM72.4654 34.91V23.99H74.2504V25.88L74.1904 28.01L74.3404 30.14V34.91H72.4654ZM76.6954 30.5C77.1454 30.5 77.5454 30.4 77.8954 30.2C78.2554 30 78.5404 29.71 78.7504 29.33C78.9604 28.95 79.0654 28.505 79.0654 27.995C79.0654 27.475 78.9604 27.03 78.7504 26.66C78.5404 26.28 78.2554 25.99 77.8954 25.79C77.5454 25.59 77.1454 25.49 76.6954 25.49C76.2454 25.49 75.8404 25.59 75.4804 25.79C75.1204 25.99 74.8354 26.28 74.6254 26.66C74.4154 27.03 74.3104 27.475 74.3104 27.995C74.3104 28.505 74.4154 28.95 74.6254 29.33C74.8354 29.71 75.1204 30 75.4804 30.2C75.8404 30.4 76.2454 30.5 76.6954 30.5ZM87.1886 32.105C86.5386 32.105 85.9436 31.955 85.4036 31.655C84.8736 31.355 84.4486 30.905 84.1286 30.305C83.8186 29.695 83.6636 28.925 83.6636 27.995C83.6636 27.055 83.8136 26.285 84.1136 25.685C84.4236 25.085 84.8436 24.64 85.3736 24.35C85.9036 24.05 86.5086 23.9 87.1886 23.9C87.9786 23.9 88.6736 24.07 89.2736 24.41C89.8836 24.75 90.3636 25.225 90.7136 25.835C91.0736 26.445 91.2536 27.165 91.2536 27.995C91.2536 28.825 91.0736 29.55 90.7136 30.17C90.3636 30.78 89.8836 31.255 89.2736 31.595C88.6736 31.935 87.9786 32.105 87.1886 32.105ZM82.7486 34.91V23.99H84.5336V25.88L84.4736 28.01L84.6236 30.14V34.91H82.7486ZM86.9786 30.5C87.4286 30.5 87.8286 30.4 88.1786 30.2C88.5386 30 88.8236 29.71 89.0336 29.33C89.2436 28.95 89.3486 28.505 89.3486 27.995C89.3486 27.475 89.2436 27.03 89.0336 26.66C88.8236 26.28 88.5386 25.99 88.1786 25.79C87.8286 25.59 87.4286 25.49 86.9786 25.49C86.5286 25.49 86.1236 25.59 85.7636 25.79C85.4036 25.99 85.1186 26.28 84.9086 26.66C84.6986 27.03 84.5936 27.475 84.5936 27.995C84.5936 28.505 84.6986 28.95 84.9086 29.33C85.1186 29.71 85.4036 30 85.7636 30.2C86.1236 30.4 86.5286 30.5 86.9786 30.5ZM100.612 32.15C99.7923 32.15 99.0073 32.035 98.2573 31.805C97.5073 31.565 96.9123 31.26 96.4723 30.89L97.1473 29.375C97.5673 29.705 98.0873 29.98 98.7073 30.2C99.3273 30.42 99.9623 30.53 100.612 30.53C101.162 30.53 101.607 30.47 101.947 30.35C102.287 30.23 102.537 30.07 102.697 29.87C102.857 29.66 102.937 29.425 102.937 29.165C102.937 28.845 102.822 28.59 102.592 28.4C102.362 28.2 102.062 28.045 101.692 27.935C101.332 27.815 100.927 27.705 100.477 27.605C100.037 27.505 99.5923 27.39 99.1423 27.26C98.7023 27.12 98.2973 26.945 97.9273 26.735C97.5673 26.515 97.2723 26.225 97.0423 25.865C96.8123 25.505 96.6973 25.045 96.6973 24.485C96.6973 23.915 96.8473 23.395 97.1473 22.925C97.4573 22.445 97.9223 22.065 98.5423 21.785C99.1723 21.495 99.9673 21.35 100.927 21.35C101.557 21.35 102.182 21.43 102.802 21.59C103.422 21.75 103.962 21.98 104.422 22.28L103.807 23.795C103.337 23.515 102.852 23.31 102.352 23.18C101.852 23.04 101.372 22.97 100.912 22.97C100.372 22.97 99.9323 23.035 99.5923 23.165C99.2623 23.295 99.0173 23.465 98.8573 23.675C98.7073 23.885 98.6323 24.125 98.6323 24.395C98.6323 24.715 98.7423 24.975 98.9623 25.175C99.1923 25.365 99.4873 25.515 99.8473 25.625C100.217 25.735 100.627 25.845 101.077 25.955C101.527 26.055 101.972 26.17 102.412 26.3C102.862 26.43 103.267 26.6 103.627 26.81C103.997 27.02 104.292 27.305 104.512 27.665C104.742 28.025 104.857 28.48 104.857 29.03C104.857 29.59 104.702 30.11 104.392 30.59C104.092 31.06 103.627 31.44 102.997 31.73C102.367 32.01 101.572 32.15 100.612 32.15ZM109.626 32.105C108.746 32.105 108.066 31.88 107.586 31.43C107.106 30.97 106.866 30.295 106.866 29.405V22.22H108.741V29.36C108.741 29.74 108.836 30.035 109.026 30.245C109.226 30.455 109.501 30.56 109.851 30.56C110.271 30.56 110.621 30.45 110.901 30.23L111.426 31.565C111.206 31.745 110.936 31.88 110.616 31.97C110.296 32.06 109.966 32.105 109.626 32.105ZM105.546 25.55V24.05H110.886V25.55H105.546ZM116.305 32.105C115.485 32.105 114.755 31.93 114.115 31.58C113.475 31.22 112.97 30.73 112.6 30.11C112.23 29.49 112.045 28.785 112.045 27.995C112.045 27.195 112.23 26.49 112.6 25.88C112.97 25.26 113.475 24.775 114.115 24.425C114.755 24.075 115.485 23.9 116.305 23.9C117.135 23.9 117.87 24.075 118.51 24.425C119.16 24.775 119.665 25.255 120.025 25.865C120.395 26.475 120.58 27.185 120.58 27.995C120.58 28.785 120.395 29.49 120.025 30.11C119.665 30.73 119.16 31.22 118.51 31.58C117.87 31.93 117.135 32.105 116.305 32.105ZM116.305 30.5C116.765 30.5 117.175 30.4 117.535 30.2C117.895 30 118.175 29.71 118.375 29.33C118.585 28.95 118.69 28.505 118.69 27.995C118.69 27.475 118.585 27.03 118.375 26.66C118.175 26.28 117.895 25.99 117.535 25.79C117.175 25.59 116.77 25.49 116.32 25.49C115.86 25.49 115.45 25.59 115.09 25.79C114.74 25.99 114.46 26.28 114.25 26.66C114.04 27.03 113.935 27.475 113.935 27.995C113.935 28.505 114.04 28.95 114.25 29.33C114.46 29.71 114.74 30 115.09 30.2C115.45 30.4 115.855 30.5 116.305 30.5ZM122.373 32V23.99H124.158V26.195L123.948 25.55C124.188 25.01 124.563 24.6 125.073 24.32C125.593 24.04 126.238 23.9 127.008 23.9V25.685C126.928 25.665 126.853 25.655 126.783 25.655C126.713 25.645 126.643 25.64 126.573 25.64C125.863 25.64 125.298 25.85 124.878 26.27C124.458 26.68 124.248 27.295 124.248 28.115V32H122.373ZM132.29 32.105C131.4 32.105 130.62 31.93 129.95 31.58C129.29 31.22 128.775 30.73 128.405 30.11C128.045 29.49 127.865 28.785 127.865 27.995C127.865 27.195 128.04 26.49 128.39 25.88C128.75 25.26 129.24 24.775 129.86 24.425C130.49 24.075 131.205 23.9 132.005 23.9C132.785 23.9 133.48 24.07 134.09 24.41C134.7 24.75 135.18 25.23 135.53 25.85C135.88 26.47 136.055 27.2 136.055 28.04C136.055 28.12 136.05 28.21 136.04 28.31C136.04 28.41 136.035 28.505 136.025 28.595H129.35V27.35H135.035L134.3 27.74C134.31 27.28 134.215 26.875 134.015 26.525C133.815 26.175 133.54 25.9 133.19 25.7C132.85 25.5 132.455 25.4 132.005 25.4C131.545 25.4 131.14 25.5 130.79 25.7C130.45 25.9 130.18 26.18 129.98 26.54C129.79 26.89 129.695 27.305 129.695 27.785V28.085C129.695 28.565 129.805 28.99 130.025 29.36C130.245 29.73 130.555 30.015 130.955 30.215C131.355 30.415 131.815 30.515 132.335 30.515C132.785 30.515 133.19 30.445 133.55 30.305C133.91 30.165 134.23 29.945 134.51 29.645L135.515 30.8C135.155 31.22 134.7 31.545 134.15 31.775C133.61 31.995 132.99 32.105 132.29 32.105Z" fill="#484848"/>
<path d="M33 16.5C27.1997 16.5 22.5 21.1997 22.5 27C22.5 32.8003 27.1997 37.5 33 37.5C38.8003 37.5 43.5 32.8003 43.5 27C43.5 21.1997 38.8003 16.5 33 16.5ZM29.0156 31.5886C28.9512 31.6985 28.859 31.7895 28.7482 31.8524C28.6375 31.9154 28.5121 31.9481 28.3847 31.9472C28.2549 31.9483 28.1273 31.9133 28.0162 31.8459C27.9336 31.798 27.8612 31.7343 27.8032 31.6583C27.7453 31.5824 27.7029 31.4957 27.6785 31.4034C27.6541 31.311 27.6482 31.2147 27.6611 31.12C27.674 31.0254 27.7055 30.9342 27.7537 30.8517L28.4705 29.6602C28.5067 29.5987 28.5584 29.5477 28.6204 29.5123C28.6824 29.477 28.7525 29.4585 28.8239 29.4586H28.9298C29.4497 29.4586 29.8134 29.7712 29.9194 30.0741L29.0156 31.5886ZM35.0836 29.2448L30.39 29.25H27.2705C27.1723 29.2504 27.0751 29.2309 26.9847 29.1926C26.8944 29.1543 26.8127 29.0981 26.7447 29.0273C26.6767 28.9565 26.6238 28.8726 26.5892 28.7808C26.5546 28.6889 26.5391 28.591 26.5434 28.493C26.5584 28.0992 26.902 27.8011 27.2934 27.8011H29.5547L32.2355 23.2378L31.3673 21.7589C31.1719 21.4219 31.2586 20.9775 31.5938 20.7656C31.6764 20.7122 31.769 20.676 31.8659 20.6593C31.9629 20.6425 32.0622 20.6456 32.158 20.6682C32.2538 20.6908 32.344 20.7326 32.4232 20.791C32.5024 20.8494 32.569 20.9232 32.6189 21.008L33.083 21.8006H33.0881L33.5527 21.008C33.6027 20.9236 33.6691 20.8502 33.7481 20.7921C33.8271 20.734 33.917 20.6924 34.0124 20.6698C34.1078 20.6472 34.2068 20.644 34.3034 20.6605C34.4001 20.677 34.4925 20.7127 34.575 20.7656C34.9083 20.9775 34.9941 21.4219 34.7972 21.7603L33.9291 23.2392L33.0853 24.6778L31.253 27.8025V27.8077H33.9534C34.2919 27.8077 34.7161 27.9895 34.8877 28.282L34.9027 28.3125C35.0541 28.5698 35.1398 28.7466 35.1398 29.0039C35.1374 29.0875 35.1187 29.1698 35.085 29.2463L35.0836 29.2448ZM38.7281 29.25H37.4573V29.2552L38.3864 30.8353C38.4863 31.0017 38.5169 31.2007 38.4716 31.3895C38.4263 31.5782 38.3087 31.7416 38.1441 31.8445C38.03 31.9141 37.8989 31.9509 37.7653 31.9509C37.6383 31.9509 37.5134 31.918 37.4028 31.8554C37.2923 31.7928 37.1998 31.7027 37.1344 31.5938L35.7614 29.2566L34.9083 27.8034L33.8077 25.9219C33.6482 25.6532 33.5616 25.3476 33.5562 25.0353C33.5509 24.7229 33.6271 24.4146 33.7772 24.1406C33.9947 23.7567 34.1611 23.6559 34.1611 23.6559L36.6094 27.7969H38.7145C39.1083 27.7969 39.4463 28.0997 39.4645 28.4883C39.4683 28.5871 39.4521 28.6856 39.4168 28.778C39.3816 28.8704 39.328 28.9546 39.2594 29.0258C39.1907 29.0969 39.1084 29.1535 39.0174 29.192C38.9263 29.2305 38.8284 29.2503 38.7295 29.25H38.7281Z" fill="#484848"/>
</svg>
